PathFileType	4	(X/Y/Z)	Walk4.trc
DataRate	CameraRate	NumFrames	NumMarkers	Units	OrigDataRate	OrigDataStartFrame	OrigNumFrames
200.000000	200.000000	8	59	mm	200.000000	441	559
Frame#	Times		LFHD		C7		CLAV		STRN		RBack		RASI		RACR1		RUA1		RElbow		RFA1		RWRU		RCAR		LACR1		LUA1		LFA1		LWRR		LCAR		RTH1		RTH3		RTH2		RLFC		LTH1		LTH3		LTH2		LTH4		LLFC		LTB1		LTB3		LTB4		LMT1		LToe		T10		RTH4		LMMAL		LTB2		LMT5		RFHD		RPSI		RWRR		RToe		LLMAL		LElbow		LPSI		RBHD		RTB1		LBHD		LWRU		LElbowM		RTB2		RTB4		RTB3		RMT1		LASI		RMMAL		RLMAL		RMT5		RCAL		LCAL		RElbowM
			X1	Y1	Z1	X2	Y2	Z2	X3	Y3	Z3	X4	Y4	Z4	X5	Y5	Z5	X6	Y6	Z6	X7	Y7	Z7	X8	Y8	Z8	X9	Y9	Z9	X10	Y10	Z10	X11	Y11	Z11	X12	Y12	Z12	X13	Y13	Z13	X14	Y14	Z14	X15	Y15	Z15	X16	Y16	Z16	X17	Y17	Z17	X18	Y18	Z18	X19	Y19	Z19	X20	Y20	Z20	X21	Y21	Z21	X22	Y22	Z22	X23	Y23	Z23	X24	Y24	Z24	X25	Y25	Z25	X26	Y26	Z26	X27	Y27	Z27	X28	Y28	Z28	X29	Y29	Z29	X30	Y30	Z30	X31	Y31	Z31	X32	Y32	Z32	X33	Y33	Z33	X34	Y34	Z34	X35	Y35	Z35	X36	Y36	Z36	X37	Y37	Z37	X38	Y38	Z38	X39	Y39	Z39	X40	Y40	Z40	X41	Y41	Z41	X42	Y42	Z42	X43	Y43	Z43	X44	Y44	Z44	X45	Y45	Z45	X46	Y46	Z46	X47	Y47	Z47	X48	Y48	Z48	X49	Y49	Z49	X50	Y50	Z50	X51	Y51	Z51	X52	Y52	Z52	X53	Y53	Z53	X54	Y54	Z54	X55	Y55	Z55	X56	Y56	Z56	X57	Y57	Z57	X58	Y58	Z58	X59	Y59	Z59

441	2.205	507.41	1579.3	-26.115	342.15	1412.1	15.648	469.32	1337.7	4.4582	554.92	1116.5	8.0079	307.11	1305.3	116.49	507.21	939.45	152.16	427.08	1348.6	180.96	446.36	1139.1	246.18	454.69	1031.6	271.88	564.07	923.94	244.77	585.91	812.82	246.17	644.7	798.9	228.19	397.54	1346.1	-161.86	356.85	1139.5	-204.41	362.16	897.89	-235.04	369.44	777	-201.77	354.96	736.05	-244.79	399.9	736.54	188.24	378.92	553.51	143.32	454.23	648.1	133.31	354.57	448.43	127.94	444.91	730.63	-161.09	510.51	557.38	-133.4	541.71	666.61	-113.91	478.24	639.88	-149.56	540.67	458.19	-117.16	607.79	376.27	-45.671	645.4	192.46	-49.051	628.4	283.14	-51.387	788.45	85.122	-65.151	820.14	93.38	-93.081	316.83	1125.8	18.042	388.78	644.88	163.46	655.81	91.064	-13.691	593.78	278.74	-114.76	752.98	52.061	-123.61	515.71	1582	46.563	293.87	972.12	79.181	616.69	844.08	186.64	376.01	26.699	82.056	636.49	68.836	-91.107	326.94	1023.4	-213.67	291.49	960.33	-35.072	346.04	1541.4	87.035	338.3	323.99	47.255	337.82	1547.5	-39.99	313.62	785.32	-247.77	316.15	1010.1	-144.49	290.87	243.22	113.91	296.55	240.79	42.89	254.97	158.35	38.299	331.82	36.924	44.355	502.25	936.52	-122.54	201.19	82.314	7.1878	180.9	69.735	87.159	283.84	21.954	128.54	129.44	41.516	39.808	605.72	25.167	-31.434	423.8	1003.5	194.09
442	2.21	512.91	1578.4	-26.777	347.86	1411.1	15.025	475.07	1336.7	3.9449	560.56	1115.3	7.6964	312.73	1304.4	115.9	512.3	938.67	152.4	432.67	1347.6	180.42	452.23	1138.3	245.73	460.9	1030.8	271.61	570.59	923.5	244.26	592.81	812.46	245.7	651.62	798.76	227.65	403.39	1345	-162.43	362.06	1138.4	-204.72	366.24	896.81	-235.22	372.9	775.84	-202.03	358.03	735.01	-245.01	404.51	735.87	188.18	382.54	552.91	143.3	458.27	647.08	133.07	357.43	447.93	127.88	449.92	729.14	-161.54	515	555.75	-133.51	546.42	664.9	-114.01	482.99	638.32	-149.83	545.92	456.95	-117.29	614.33	376.03	-45.622	655.32	192.79	-49.3	636.72	283.24	-51.494	800.5	87.665	-64.937	832.29	96.566	-92.55	322.51	1124.9	17.419	392.91	644.25	163.42	667.5	91.442	-14.003	602.3	278.35	-114.97	766.09	53.875	-123.54	521.18	1581.1	45.901	299.39	971.21	78.456	623.36	843.8	186.11	376.02	26.686	82.139	648.83	68.989	-91.537	331.7	1022.5	-213.81	297.25	959.3	-35.758	351.55	1540.4	86.345	340.36	323.44	47.293	343.36	1546.4	-40.693	316.99	784.5	-247.86	321.08	1009.2	-144.57	292.19	243.09	113.92	298	240.55	42.93	255.82	158.41	38.346	331.84	36.878	44.341	508.09	935.05	-122.57	201.53	82.745	7.2418	181.12	70.283	87.164	283.83	21.958	128.51	129.53	42.357	39.831	618.55	24.57	-32.064	430.15	1002.4	193.7
443	2.215	518.43	1577.5	-27.467	353.58	1410.1	14.366	480.83	1335.7	3.3931	566.23	1114.1	7.3478	318.38	1303.5	115.27	517.42	937.92	152.61	438.28	1346.6	179.83	458.11	1137.4	245.25	467.08	1030.1	271.3	577.05	923.01	243.75	599.61	812.05	245.24	658.43	798.56	227.14	409.26	1343.9	-163.03	367.31	1137.4	-205.08	370.38	895.74	-235.42	376.44	774.69	-202.29	361.22	733.99	-245.22	409.15	735.21	188.11	386.19	552.33	143.28	462.35	646.08	132.84	360.32	447.45	127.82	455.06	727.73	-162.01	519.72	554.25	-133.61	551.28	663.34	-114.1	487.92	636.86	-150.11	551.33	455.81	-117.42	620.81	375.75	-45.558	664.75	193.06	-49.512	644.75	283.28	-51.574	811.77	89.94	-64.692	843.67	99.402	-91.999	328.22	1123.9	16.764	397.07	643.63	163.36	678.47	91.773	-14.281	610.57	277.97	-115.17	778.36	55.47	-123.42	526.68	1580.3	45.21	304.95	970.3	77.718	629.94	843.45	185.58	376.04	26.679	82.205	660.42	69.151	-91.937	336.5	1021.6	-213.99	303.04	958.28	-36.458	357.08	1539.4	85.632	342.44	322.91	47.336	348.91	1545.2	-41.419	320.46	783.69	-247.97	326.04	1008.3	-144.69	293.54	243	113.94	299.46	240.34	42.983	256.68	158.5	38.413	331.86	36.832	44.328	513.98	933.6	-122.57	201.87	83.216	7.3214	181.35	70.88	87.193	283.82	21.96	128.48	129.62	43.258	39.876	630.53	24.063	-32.654	436.52	1001.4	193.26
444	2.22	523.96	1576.6	-28.185	359.32	1409.1	13.671	486.62	1334.6	2.8016	571.92	1113	6.9609	324.06	1302.5	114.61	522.57	937.19	152.79	443.92	1345.7	179.2	464.01	1136.6	244.72	473.23	1029.3	270.97	583.43	922.49	243.24	606.3	811.6	244.8	665.14	798.3	226.65	415.17	1342.7	-163.67	372.6	1136.4	-205.49	374.58	894.68	-235.65	380.08	773.58	-202.55	364.51	732.98	-245.43	413.83	734.56	188.01	389.88	551.75	143.24	466.47	645.09	132.62	363.26	446.99	127.75	460.34	726.43	-162.49	524.7	552.89	-133.69	556.32	661.95	-114.16	493.06	635.52	-150.4	556.91	454.77	-117.55	627.24	375.42	-45.482	673.68	193.24	-49.679	652.5	283.24	-51.625	822.25	91.886	-64.423	854.28	101.82	-91.44	333.96	1122.9	16.08	401.27	643.02	163.29	688.68	92.022	-14.519	618.58	277.6	-115.34	789.75	56.795	-123.27	532.19	1579.4	44.492	310.56	969.4	76.97	636.44	843.04	185.07	376.07	26.676	82.254	671.22	69.285	-92.298	341.33	1020.7	-214.21	308.87	957.27	-37.169	362.64	1538.4	84.897	344.55	322.4	47.386	354.48	1544.1	-42.168	324.04	782.88	-248.1	331.03	1007.5	-144.85	294.91	242.95	113.99	300.95	240.15	43.05	257.55	158.63	38.501	331.87	36.787	44.318	519.93	932.18	-122.55	202.21	83.732	7.4281	181.61	71.53	87.249	283.81	21.959	128.46	129.71	44.224	39.947	641.62	23.618	-33.192	442.87	1000.4	192.79
445	2.225	529.51	1575.7	-28.93	365.08	1408.2	12.938	492.43	1333.6	2.1699	577.64	1111.9	6.535	329.76	1301.6	113.9	527.76	936.47	152.94	449.57	1344.7	178.54	469.93	1135.8	244.16	479.34	1028.5	270.61	589.75	921.92	242.73	612.88	811.1	244.38	671.73	797.97	226.18	421.09	1341.6	-164.34	377.92	1135.4	-205.95	378.84	893.64	-235.9	383.8	772.5	-202.81	367.92	731.99	-245.64	418.56	733.92	187.88	393.62	551.19	143.21	470.64	644.12	132.39	366.25	446.54	127.68	465.79	725.23	-162.98	529.95	551.69	-133.76	561.55	660.73	-114.2	498.42	634.32	-150.68	562.67	453.82	-117.66	633.62	375.05	-45.395	682.12	193.31	-49.799	659.95	283.12	-51.646	831.94	93.441	-64.135	864.09	103.75	-90.882	339.75	1122	15.367	405.52	642.42	163.2	698.13	92.16	-14.71	626.31	277.22	-115.49	800.24	57.801	-123.09	537.72	1578.6	43.746	316.21	968.51	76.215	642.85	842.56	184.57	376.1	26.678	82.287	681.21	69.355	-92.609	346.19	1019.8	-214.48	314.73	956.29	-37.889	368.22	1537.4	84.138	346.71	321.9	47.443	360.07	1543	-42.938	327.71	782.08	-248.24	336.04	1006.7	-145.05	296.32	242.93	114.05	302.47	240	43.132	258.44	158.8	38.612	331.89	36.742	44.312	525.93	930.81	-122.53	202.55	84.298	7.5638	181.88	72.239	87.333	283.8	21.954	128.43	129.81	45.264	40.047	651.81	23.214	-33.665	449.2	999.36	192.3
446	2.23	535.07	1574.9	-29.701	370.86	1407.2	12.168	498.26	1332.7	1.4975	583.4	1110.9	6.0695	335.48	1300.7	113.15	532.99	935.77	153.04	455.24	1343.7	177.83	475.86	1135	243.57	485.42	1027.8	270.23	595.99	921.33	242.23	619.36	810.57	243.97	678.21	797.58	225.74	427.03	1340.5	-165.06	383.27	1134.4	-206.46	383.16	892.62	-236.18	387.61	771.45	-203.07	371.44	731.02	-245.84	423.34	733.28	187.73	397.42	550.63	143.16	474.86	643.15	132.15	369.31	446.12	127.61	471.42	724.17	-163.47	535.48	550.66	-133.82	566.99	659.7	-114.22	504.01	633.27	-150.95	568.6	452.98	-117.77	639.96	374.61	-45.3	690.05	193.25	-49.867	667.12	282.9	-51.635	840.83	94.553	-63.829	873.12	105.13	-90.33	345.58	1121	14.629	409.81	641.82	163.1	706.83	92.164	-14.849	633.77	276.82	-115.6	809.8	58.446	-122.88	543.27	1577.8	42.974	321.9	967.63	75.457	649.16	842.03	184.09	376.13	26.681	82.303	690.38	69.335	-92.864	351.09	1018.9	-214.79	320.63	955.34	-38.615	373.82	1536.4	83.358	348.9	321.43	47.507	365.67	1541.9	-43.731	331.49	781.29	-248.4	341.07	1005.9	-145.29	297.76	242.95	114.13	304.02	239.88	43.229	259.36	159	38.747	331.9	36.698	44.31	531.98	929.49	-122.51	202.91	84.921	7.7303	182.17	73.013	87.445	283.79	21.944	128.41	129.91	46.384	40.178	661.07	22.836	-34.063	455.49	998.36	191.78
447	2.235	540.65	1574.1	-30.497	376.65	1406.3	11.359	504.11	1331.7	0.78434	589.18	1109.9	5.5644	341.24	1299.8	112.37	538.28	935.09	153.1	460.94	1342.8	177.09	481.81	1134.2	242.93	491.47	1027	269.81	602.15	920.7	241.73	625.72	810	243.58	684.57	797.14	225.33	433	1339.5	-165.82	388.65	1133.4	-207.01	387.55	891.63	-236.49	391.52	770.43	-203.33	375.09	730.07	-246.04	428.18	732.64	187.55	401.28	550.08	143.1	479.14	642.19	131.91	372.43	445.71	127.53	477.24	723.24	-163.95	541.3	549.8	-133.88	572.64	658.86	-114.22	509.84	632.38	-151.21	574.7	452.24	-117.88	646.25	374.13	-45.198	697.48	193.06	-49.881	674	282.58	-51.593	848.93	95.18	-63.506	881.38	105.91	-89.787	351.46	1120.1	13.867	414.16	641.22	162.98	714.77	92.018	-14.931	640.95	276.39	-115.68	818.45	58.694	-122.64	548.84	1577	42.177	327.65	966.78	74.699	655.39	841.45	183.63	376.16	26.685	82.304	698.73	69.203	-93.059	356.02	1018	-215.13	326.56	954.43	-39.343	379.44	1535.4	82.555	351.16	320.98	47.58	371.29	1540.9	-44.544	335.37	780.51	-248.58	346.14	1005.1	-145.58	299.25	243.02	114.23	305.6	239.79	43.343	260.31	159.26	38.909	331.91	36.657	44.314	538.08	928.22	-122.5	203.27	85.607	7.9299	182.48	73.857	87.587	283.79	21.929	128.39	130.02	47.593	40.344	669.4	22.475	-34.38	461.72	997.39	191.26
448	2.24	546.24	1573.3	-31.317	382.46	1405.3	10.514	509.99	1330.8	0.03093	595	1108.9	5.02	347.01	1298.9	111.54	543.61	934.41	153.11	466.66	1341.9	176.3	487.77	1133.4	242.27	497.47	1026.3	269.37	608.24	920.04	241.24	631.96	809.4	243.21	690.81	796.64	224.95	438.98	1338.4	-166.61	394.07	1132.4	-207.61	392	890.66	-236.82	395.52	769.46	-203.59	378.84	729.14	-246.24	433.07	732.01	187.34	405.21	549.54	143.03	483.49	641.25	131.66	375.63	445.32	127.44	483.25	722.46	-164.42	547.39	549.12	-133.94	578.52	658.2	-114.19	515.91	631.65	-151.45	580.97	451.6	-117.98	652.5	373.59	-45.09	704.44	192.73	-49.841	680.6	282.15	-51.518	856.28	95.29	-63.163	888.88	106.06	-89.253	357.39	1119.2	13.082	418.57	640.63	162.85	721.97	91.71	-14.956	647.86	275.92	-115.73	826.18	58.52	-122.37	554.42	1576.3	41.357	333.43	965.95	73.944	661.52	840.81	183.19	376.2	26.689	82.288	706.26	68.948	-93.192	360.98	1017.2	-215.52	332.54	953.57	-40.073	385.08	1534.4	81.73	353.47	320.54	47.661	376.92	1539.9	-45.379	339.35	779.74	-248.78	351.23	1004.3	-145.91	300.79	243.13	114.35	307.23	239.74	43.475	261.28	159.57	39.098	331.93	36.617	44.324	544.23	927.03	-122.51	203.65	86.363	8.1652	182.81	74.777	87.76	283.79	21.908	128.37	130.14	48.899	40.548	676.82	22.13	-34.616	467.88	996.44	190.73
